<svg width="21" height="14" viewBox="0 0 21 14" fill="none" xmlns="http://www.w3.org/2000/svg">
<path d="M19.5217 1.2018C18.8082 0.348193 17.491 0 14.9754 0H5.84379C3.27062 0 1.93108 0.370654 1.22032 1.27945C0.527344 2.16553 0.527344 3.47109 0.527344 5.27803V8.72204C0.527344 12.2226 1.34956 14 5.84379 14H14.9755C17.157 14 18.3658 13.6927 19.1479 12.9394C19.9499 12.1669 20.292 10.9057 20.292 8.72204V5.27803C20.292 3.37246 20.2384 2.05919 19.5217 1.2018ZM13.2163 7.47551L9.06971 9.65676C8.97701 9.70553 8.87564 9.72972 8.77439 9.72972C8.65975 9.72972 8.54537 9.69866 8.44406 9.63693C8.2533 9.52058 8.13682 9.31248 8.13682 9.08801V4.7395C8.13682 4.51541 8.25298 4.3075 8.44336 4.19109C8.63381 4.07469 8.87066 4.06673 9.06825 4.17004L13.2149 6.33724C13.4259 6.44748 13.5583 6.66669 13.5587 6.90586C13.5589 7.14522 13.427 7.36475 13.2163 7.47551Z" fill="#F70017"/>
</svg>
