<svg width="40" height="40" viewBox="0 0 40 40" fill="none" xmlns="http://www.w3.org/2000/svg">
<path d="M10.506 32.988L11.954 33.834C14.3959 35.2581 17.1732 36.0058 20 36C23.1645 36 26.2579 35.0616 28.8891 33.3035C31.5203 31.5454 33.5711 29.0465 34.7821 26.1229C35.9931 23.1993 36.3099 19.9822 35.6926 16.8785C35.0752 13.7748 33.5514 10.9239 31.3137 8.68629C29.0761 6.44865 26.2252 4.9248 23.1215 4.30743C20.0178 3.69007 16.8007 4.00692 13.8771 5.21792C10.9535 6.42893 8.45461 8.47968 6.69651 11.1109C4.93841 13.7421 4.00002 16.8355 4.00002 20C4.00002 22.872 4.75402 25.626 6.16802 28.048L7.01202 29.496L5.70602 34.298L10.506 32.988ZM0.00802676 40L2.71203 30.064C0.930302 27.0097 -0.00578126 23.536 2.68645e-05 20C2.68645e-05 8.95399 8.95402 0 20 0C31.046 0 40 8.95399 40 20C40 31.046 31.046 40 20 40C16.4656 40.0057 12.9933 39.0703 9.94002 37.29L0.00802676 40ZM12.782 10.616C13.05 10.596 13.32 10.596 13.588 10.608C13.696 10.616 13.804 10.628 13.912 10.64C14.23 10.676 14.58 10.87 14.698 11.138C15.294 12.49 15.874 13.852 16.434 15.218C16.558 15.522 16.484 15.912 16.248 16.292C16.0857 16.5489 15.9101 16.7973 15.722 17.036C15.496 17.326 15.01 17.858 15.01 17.858C15.01 17.858 14.812 18.094 14.888 18.388C14.916 18.5 15.008 18.662 15.092 18.798L15.21 18.988C15.722 19.842 16.41 20.708 17.25 21.524C17.49 21.756 17.724 21.994 17.976 22.216C18.912 23.042 19.972 23.716 21.116 24.216L21.126 24.22C21.296 24.294 21.382 24.334 21.63 24.44C21.754 24.492 21.882 24.538 22.012 24.572C22.1464 24.6062 22.2878 24.5998 22.4185 24.5535C22.5492 24.5072 22.6632 24.4231 22.746 24.312C24.194 22.558 24.326 22.444 24.338 22.444V22.448C24.4386 22.3542 24.5581 22.2829 24.6885 22.2391C24.8189 22.1953 24.9572 22.1799 25.094 22.194C25.214 22.202 25.336 22.224 25.448 22.274C26.51 22.76 28.248 23.518 28.248 23.518L29.412 24.04C29.608 24.134 29.786 24.356 29.792 24.57C29.8 24.704 29.812 24.92 29.766 25.316C29.702 25.834 29.546 26.456 29.39 26.782C29.2832 27.0045 29.1414 27.2084 28.97 27.386C28.7682 27.5979 28.5473 27.7907 28.31 27.962C28.2279 28.0237 28.1446 28.0837 28.06 28.142C27.8113 28.2998 27.5557 28.4466 27.294 28.582C26.7791 28.8555 26.2103 29.0125 25.628 29.042C25.258 29.062 24.888 29.09 24.516 29.07C24.5 29.07 23.38 28.896 23.38 28.896C20.5365 28.1481 17.9068 26.7469 15.7 24.804C15.248 24.406 14.83 23.978 14.402 23.552C12.622 21.782 11.278 19.872 10.462 18.068C10.0444 17.1826 9.81875 16.2188 9.80002 15.24C9.79178 14.0257 10.1887 12.8433 10.928 11.88C11.074 11.692 11.212 11.496 11.45 11.27C11.704 11.03 11.864 10.902 12.038 10.814C12.2694 10.6981 12.5217 10.63 12.78 10.614L12.782 10.616Z" fill="#15BF45"/>
</svg>
