<svg width="16" height="22" viewBox="0 0 16 22" fill="none" xmlns="http://www.w3.org/2000/svg">
<path d="M8.00034 22C9.98946 22 11.8971 21.2098 13.3036 19.8033C14.7102 18.3968 15.5003 16.4891 15.5003 14.5C15.5003 13.634 15.2703 12.803 15.0003 12.03C13.3333 13.677 12.0673 14.5 11.2003 14.5C15.1953 7.5 13.0003 4.5 7.00034 0.5C7.50034 5.5 4.20434 7.774 2.86234 9.037C1.76766 10.0667 1.00757 11.4015 0.680621 12.8683C0.353667 14.3352 0.474929 15.8664 1.02868 17.2635C1.58244 18.6606 2.54315 19.8592 3.78624 20.7037C5.02934 21.5483 6.49749 21.9999 8.00034 22ZM8.71034 4.235C11.9513 6.985 11.9673 9.122 9.46334 13.509C8.70234 14.842 9.66534 16.5 11.2003 16.5C11.8883 16.5 12.5843 16.3 13.3193 15.905C13.1015 16.728 12.6955 17.4892 12.1335 18.1286C11.5714 18.768 10.8686 19.2682 10.0804 19.5899C9.29218 19.9115 8.44004 20.0458 7.59109 19.9821C6.74215 19.9184 5.91958 19.6585 5.18814 19.2229C4.45671 18.7873 3.83639 18.1878 3.37602 17.4717C2.91565 16.7556 2.62781 15.9424 2.53516 15.0961C2.4425 14.2498 2.54756 13.3936 2.84207 12.5948C3.13658 11.7961 3.61249 11.0766 4.23234 10.493C4.35834 10.375 4.99734 9.808 5.02534 9.783C5.44934 9.403 5.79834 9.066 6.14334 8.697C7.37334 7.379 8.25734 5.917 8.70934 4.235H8.71034Z" fill="white"/>
</svg>
