<svg width="20" height="20" viewBox="0 0 20 20" fill="none" xmlns="http://www.w3.org/2000/svg">
<path d="M0 20C0 17.9793 0.802719 16.0414 2.23157 14.6125C3.66042 13.1837 5.59835 12.381 7.61905 12.381C9.63974 12.381 11.5777 13.1837 13.0065 14.6125C14.4354 16.0414 15.2381 17.9793 15.2381 20H13.3333C13.3333 18.4845 12.7313 17.031 11.6597 15.9594C10.588 14.8878 9.13457 14.2857 7.61905 14.2857C6.10352 14.2857 4.65007 14.8878 3.57844 15.9594C2.5068 17.031 1.90476 18.4845 1.90476 20H0ZM7.61905 11.4286C4.4619 11.4286 1.90476 8.87143 1.90476 5.71429C1.90476 2.55714 4.4619 0 7.61905 0C10.7762 0 13.3333 2.55714 13.3333 5.71429C13.3333 8.87143 10.7762 11.4286 7.61905 11.4286ZM7.61905 9.52381C9.72381 9.52381 11.4286 7.81905 11.4286 5.71429C11.4286 3.60952 9.72381 1.90476 7.61905 1.90476C5.51429 1.90476 3.80952 3.60952 3.80952 5.71429C3.80952 7.81905 5.51429 9.52381 7.61905 9.52381ZM15.5086 13.0505C16.847 13.6533 17.9828 14.6298 18.7796 15.8626C19.5764 17.0954 20.0002 18.5321 20 20H18.0952C18.0955 18.899 17.7777 17.8214 17.1801 16.8967C16.5825 15.9721 15.7305 15.2397 14.7267 14.7876L15.5076 13.0505H15.5086ZM14.8533 2.2981C15.8129 2.69362 16.6333 3.36527 17.2105 4.22784C17.7877 5.0904 18.0956 6.10499 18.0952 7.14286C18.0956 8.44984 17.6073 9.70974 16.7262 10.6751C15.8451 11.6404 14.6349 12.2414 13.3333 12.36V10.4429C14.039 10.3418 14.6937 10.0172 15.2012 9.51663C15.7088 9.01609 16.0426 8.36602 16.1535 7.66184C16.2644 6.95766 16.1466 6.23647 15.8175 5.60415C15.4884 4.97182 14.9652 4.46166 14.3248 4.14857L14.8533 2.2981Z" fill="#DC1A14"/>
</svg>
