<svg width="177" height="32" viewBox="0 0 177 32" fill="none" xmlns="http://www.w3.org/2000/svg"><path fill-rule="evenodd" clip-rule="evenodd" d="M0 15.928v7.965a7.988 7.988 0 0 0 7.964 7.964h25.22a3.994 3.994 0 0 0 3.982-3.982 3.994 3.994 0 0 0-3.982-3.982H7.964A7.988 7.988 0 0 1 0 15.928z" fill="url(#a)"/><path d="M23.892 11.948h-7.964a3.982 3.982 0 1 0 0 7.964h7.964a3.982 3.982 0 0 0 0-7.964z" fill="url(#b)"/><path fill-rule="evenodd" clip-rule="evenodd" d="M33.184 0H15.928a7.988 7.988 0 0 0-7.964 7.964h25.22a3.982 3.982 0 0 0 0-7.964z" fill="url(#c)"/><path fill-rule="evenodd" clip-rule="evenodd" d="M33.184 0H15.928a7.988 7.988 0 0 0-7.964 7.964h25.22a3.982 3.982 0 0 0 0-7.964z" fill="url(#d)"/><path fill-rule="evenodd" clip-rule="evenodd" d="M7.964 23.893V7.965A7.988 7.988 0 0 1 15.928.001H7.964A7.988 7.988 0 0 0 0 7.965v7.964a7.988 7.988 0 0 0 7.964 7.964z" fill="url(#e)"/><path fill-rule="evenodd" clip-rule="evenodd" d="M7.964 23.893V7.965A7.988 7.988 0 0 1 15.928.001H7.964A7.988 7.988 0 0 0 0 7.965v7.964a7.988 7.988 0 0 0 7.964 7.964z" fill="url(#f)"/><path fill-rule="evenodd" clip-rule="evenodd" d="M70.35 11.946H49.112a7.988 7.988 0 0 1-7.964-7.964v7.964a7.988 7.988 0 0 0 7.964 7.964H70.35a7.988 7.988 0 0 1 7.964 7.965V19.91a7.988 7.988 0 0 0-7.964-7.964z" fill="url(#g)"/><path fill-rule="evenodd" clip-rule="evenodd" d="M74.332 0H45.13a3.994 3.994 0 0 0-3.982 3.982 7.988 7.988 0 0 0 7.964 7.964V7.964h25.22a3.994 3.994 0 0 0 3.982-3.982A3.994 3.994 0 0 0 74.332 0z" fill="url(#h)"/><path fill-rule="evenodd" clip-rule="evenodd" d="M74.332 0H45.13a3.994 3.994 0 0 0-3.982 3.982 7.988 7.988 0 0 0 7.964 7.964V7.964h25.22a3.994 3.994 0 0 0 3.982-3.982A3.994 3.994 0 0 0 74.332 0z" fill="url(#i)"/><path fill-rule="evenodd" clip-rule="evenodd" d="M70.35 19.91v3.982H45.13a3.994 3.994 0 0 0-3.982 3.982 3.994 3.994 0 0 0 3.982 3.982h29.202a3.994 3.994 0 0 0 3.982-3.982 7.988 7.988 0 0 0-7.964-7.964z" fill="url(#j)"/><path fill-rule="evenodd" clip-rule="evenodd" d="M70.35 19.91v3.982H45.13a3.994 3.994 0 0 0-3.982 3.982 3.994 3.994 0 0 0 3.982 3.982h29.202a3.994 3.994 0 0 0 3.982-3.982 7.988 7.988 0 0 0-7.964-7.964z" fill="url(#k)"/><path fill-rule="evenodd" clip-rule="evenodd" d="M176.246 22.324h-3.638v9.543h-2.762v-9.543h-3.661v-2.428h10.054l.007 2.428zm-17.635 3.27h2.522a1.033 1.033 0 0 0 .841-.463c.249-.348.373-.768.353-1.195 0-.494-.132-.888-.398-1.18a1.18 1.18 0 0 0-.876-.438h-2.442v3.276zm-2.762 6.272v-11.97h5.39a3.463 3.463 0 0 1 1.558.354c.468.23.888.544 1.239.93.347.38.623.82.816 1.297.193.466.293.964.295 1.467a4.182 4.182 0 0 1-.522 2.04 3.658 3.658 0 0 1-1.432 1.434l2.628 4.452h-3.117l-2.291-3.863h-1.802v3.862l-2.762-.003zm-5.391-4.586l-1.396-4.23-1.432 4.231 2.828-.001zm-2.644-7.386h2.493l4.363 11.972h-2.83l-.929-2.681h-3.717l-.909 2.68h-2.83l4.359-11.97zm-7.699 5.974a4.652 4.652 0 0 0-.212-1.445 3.239 3.239 0 0 0-.614-1.121 2.686 2.686 0 0 0-.995-.725 3.34 3.34 0 0 0-1.327-.253h-1.702v7.115h1.702a3.2 3.2 0 0 0 1.347-.265c.382-.171.719-.428.985-.75.272-.335.478-.718.607-1.13.145-.462.217-.944.212-1.429l-.003.003zm-7.613 6.002V19.896h4.464a6.594 6.594 0 0 1 2.593.472 5.222 5.222 0 0 1 2.999 3.178c.256.746.385 1.53.379 2.319.012.842-.13 1.68-.42 2.47a5.32 5.32 0 0 1-1.204 1.889 5.408 5.408 0 0 1-1.886 1.215 6.701 6.701 0 0 1-2.451.43h-4.474zm-10.022-6.845v6.845h-2.753V19.896h2.156l5.575 7.035v-7.035h2.755v11.971h-2.223l-5.51-6.842zm-8.152 2.256l-1.398-4.231-1.432 4.231h2.83zm-2.644-7.385h2.495l4.362 11.971h-2.829l-.929-2.681h-3.717l-.909 2.681h-2.832l4.359-11.971zm-4.598 2.428h-3.636v9.543h-2.762v-9.543H97.03v-2.428h10.054l.002 2.428zM94.79 23.403a1.678 1.678 0 0 0-.353-.254 7.324 7.324 0 0 0-1.752-.742 3.96 3.96 0 0 0-1.078-.151c-.988 0-1.482.331-1.482.994-.006.182.05.36.16.506.13.153.29.276.472.362.25.123.513.222.783.295.314.088.679.19 1.095.304a14.12 14.12 0 0 1 1.549.514 4.16 4.16 0 0 1 1.17.691 2.8 2.8 0 0 1 .741 1.003c.186.449.277.931.266 1.417a3.553 3.553 0 0 1-.38 1.71c-.24.452-.583.84-1.002 1.13a4.23 4.23 0 0 1-1.432.624 7.13 7.13 0 0 1-1.668.194 9.737 9.737 0 0 1-2.695-.396 10.697 10.697 0 0 1-1.27-.463 7.11 7.11 0 0 1-1.138-.624l1.213-2.41c.133.123.28.23.438.32.293.181.6.34.918.472.397.169.805.31 1.222.422a5.12 5.12 0 0 0 1.364.186c.974 0 1.46-.298 1.46-.893a.756.756 0 0 0-.219-.556 2.065 2.065 0 0 0-.606-.398 6.584 6.584 0 0 0-.919-.33c-.354-.1-.738-.213-1.153-.337a9.964 9.964 0 0 1-1.429-.547 3.782 3.782 0 0 1-1.002-.682 2.482 2.482 0 0 1-.59-.893 3.294 3.294 0 0 1-.193-1.18 3.764 3.764 0 0 1 .353-1.67 3.6 3.6 0 0 1 .96-1.223 4.18 4.18 0 0 1 1.402-.755 5.581 5.581 0 0 1 1.692-.253c.413 0 .824.039 1.23.118.393.076.781.177 1.162.304.354.117.7.258 1.035.422.32.157.615.315.884.472l-1.208 2.297zm51.526-17.316c-.002.455.066.907.201 1.341.127.418.33.81.598 1.155.265.338.601.615.985.81.419.206.882.308 1.349.297.481.011.956-.099 1.382-.32.382-.204.716-.49.977-.835.262-.35.459-.743.582-1.163a4.59 4.59 0 0 0-.01-2.66 3.384 3.384 0 0 0-.606-1.147 3.01 3.01 0 0 0-.985-.796 2.922 2.922 0 0 0-1.34-.295 2.86 2.86 0 0 0-1.373.314c-.38.2-.712.48-.977.817a3.452 3.452 0 0 0-.59 1.155 4.59 4.59 0 0 0-.193 1.327zm3.115 6.07a5.553 5.553 0 0 1-2.425-.523 5.968 5.968 0 0 1-1.87-1.373 6.249 6.249 0 0 1-1.204-1.948 6.138 6.138 0 0 1-.43-2.256c-.002-.78.15-1.554.446-2.277a6.03 6.03 0 0 1 3.141-3.262 5.714 5.714 0 0 1 2.39-.498 5.559 5.559 0 0 1 2.425.523 5.916 5.916 0 0 1 1.87 1.383 6.234 6.234 0 0 1 1.195 1.957c.278.708.422 1.462.426 2.223.001.78-.15 1.554-.446 2.276a6.056 6.056 0 0 1-3.125 3.271 5.632 5.632 0 0 1-2.392.504h-.001zm-9.349-1.28a4.494 4.494 0 0 1-3.15 1.264 5.588 5.588 0 0 1-4.051-1.703 5.909 5.909 0 0 1-1.235-1.943 6.697 6.697 0 0 1-.456-2.503 6.011 6.011 0 0 1 .456-2.327A5.908 5.908 0 0 1 137.153 0c1.111 0 2.085.233 2.92.7a4.545 4.545 0 0 1 1.869 1.914l-2.055 1.551a2.941 2.941 0 0 0-1.171-1.255 3.233 3.233 0 0 0-1.659-.448 2.797 2.797 0 0 0-2.223 1.054 3.637 3.637 0 0 0-.623 1.155 4.451 4.451 0 0 0-.219 1.416c-.004.488.076.973.237 1.434.145.417.368.803.657 1.137a2.963 2.963 0 0 0 2.291 1.021c1.078 0 2.051-.5 2.92-1.501v-.372h-2.324V5.801h4.615v6.254h-2.291l-.015-1.178zm-16.74-5.094h2.522a1.033 1.033 0 0 0 .841-.463c.248-.347.373-.768.353-1.194 0-.495-.132-.888-.398-1.18a1.173 1.173 0 0 0-.876-.438h-2.442v3.275zm-2.763 6.272V.085h5.387a3.465 3.465 0 0 1 1.562.353c.468.23.888.544 1.239.93.347.38.623.82.816 1.297.193.466.293.964.295 1.467a4.134 4.134 0 0 1-.521 2.04 3.658 3.658 0 0 1-1.432 1.434l2.628 4.452h-3.118l-2.291-3.863h-1.802v3.86h-2.763zm-1.684-2.428v2.428h-8.405V.085h8.254v2.428h-5.492V4.84h4.717v2.242h-4.717v2.545h5.643zM100.469 5.21v6.845h-2.762V.085h2.155l5.575 7.035V.085h2.762v11.97h-2.222l-5.508-6.845zm-4.447 4.417v2.428h-8.405V.085h8.254v2.428h-5.492V4.84h4.717v2.242h-4.717v2.545h5.643z" fill="#4A4A4A"/><defs><linearGradient id="a" x1="3.904" y1="12.027" x2="29.28" y2="37.405" gradientUnits="userSpaceOnUse"><stop stop-color="#FF001F"/><stop offset="1" stop-color="#40B4FF"/></linearGradient><linearGradient id="b" x1="1824.74" y1="1255.94" x2="2285.93" y2="333.686" gradientUnits="userSpaceOnUse"><stop stop-color="#FF001F"/><stop offset="1" stop-color="#40B4FF"/></linearGradient><linearGradient id="c" x1="3056.92" y1="831.614" x2="3587.29" y2="-1113.22" gradientUnits="userSpaceOnUse"><stop stop-color="#FF001F"/><stop offset="1" stop-color="#40B4FF"/></linearGradient><linearGradient id="d" x1="33.61" y1="11.204" x2="12.055" y2="-1.241" gradientUnits="userSpaceOnUse"><stop stop-opacity="0"/><stop offset=".85" stop-opacity=".32"/><stop offset="1" stop-opacity=".6"/></linearGradient><linearGradient id="e" x1="955.695" y1="4300.87" x2="955.695" y2=".24" gradientUnits="userSpaceOnUse"><stop stop-color="#FF001F"/><stop offset="1" stop-color="#40B4FF"/></linearGradient><linearGradient id="f" x1="7.964" y1=".002" x2="7.964" y2="23.895" gradientUnits="userSpaceOnUse"><stop stop-opacity="0"/><stop offset=".88" stop-opacity=".43"/><stop offset="1" stop-opacity=".6"/></linearGradient><linearGradient id="g" x1="68.675" y1="6.987" x2="50.788" y2="24.873" gradientUnits="userSpaceOnUse"><stop stop-color="#C43950"/><stop offset="1" stop-color="#40B4FF"/></linearGradient><linearGradient id="h" x1="19597.5" y1="-551.555" x2="18493.8" y2="2882.07" gradientUnits="userSpaceOnUse"><stop stop-color="#FF001F"/><stop offset="1" stop-color="#40B4FF"/></linearGradient><linearGradient id="i" x1="69.844" y1="-6.128" x2="48.797" y2="14.918" gradientUnits="userSpaceOnUse"><stop stop-opacity="0"/><stop offset=".86" stop-opacity=".38"/><stop offset="1" stop-opacity=".6"/></linearGradient><linearGradient id="j" x1="13934.1" y1="3438.91" x2="15037.8" y2="5.283" gradientUnits="userSpaceOnUse"><stop stop-color="#FF001F"/><stop offset="1" stop-color="#40B4FF"/></linearGradient><linearGradient id="k" x1="49.618" y1="37.989" x2="70.664" y2="16.942" gradientUnits="userSpaceOnUse"><stop stop-opacity="0"/><stop offset=".92" stop-opacity=".5"/><stop offset="1" stop-opacity=".6"/></linearGradient></defs></svg>