<svg width="175" height="32" viewBox="0 0 175 32" xmlns="http://www.w3.org/2000/svg"><title>logo v2</title><g fill="#FFF"><path d="M0 15.807v7.901a7.927 7.927 0 0 0 7.902 7.902h25.024a3.962 3.962 0 0 0 3.953-3.962 3.962 3.962 0 0 0-3.953-3.94H7.902A7.927 7.927 0 0 1 0 15.807z"/><rect x="11.854" y="11.854" width="15.807" height="7.902" rx="3.951"/><path d="M32.926 0H17.123a7.927 7.927 0 0 0-7.905 7.905h23.708a3.952 3.952 0 0 0 0-7.905z"/><path d="M7.902 22.392V7.905A7.927 7.927 0 0 1 15.807 0H7.902A7.927 7.927 0 0 0 0 7.905v6.598a7.927 7.927 0 0 0 7.902 7.889zm61.903-10.538H48.733c-4.345 0-7.902-2.24-7.902-6.598v6.598a7.927 7.927 0 0 0 7.902 7.902h21.072c4.345 0 7.902 2.24 7.902 6.598v-6.598a7.927 7.927 0 0 0-7.902-7.902zm-28.961 0z"/><path d="M73.758 0H44.78a3.962 3.962 0 0 0-3.937 3.952c0 4.346 3.556 6.598 7.902 6.598V7.905H73.77a3.962 3.962 0 0 0 3.953-3.953A3.962 3.962 0 0 0 73.758 0zm-3.953 21.075v2.633H44.781a3.962 3.962 0 0 0-3.937 3.94 3.962 3.962 0 0 0 3.952 3.953h28.977a3.962 3.962 0 0 0 3.934-3.953c0-4.332-3.56-6.573-7.902-6.573zm7.902-1.395zm97.177 2.47h-3.61v9.47h-2.74v-9.47h-3.629v-2.407h9.979v2.407zm-17.5 3.249h2.513c.337-.007.65-.178.836-.46.246-.342.37-.756.352-1.177a1.659 1.659 0 0 0-.402-1.172 1.175 1.175 0 0 0-.87-.434h-2.423l-.006 3.243zm-2.74 6.224v-11.88h5.341a3.456 3.456 0 0 1 1.552.365c.464.227.88.539 1.229.92.344.378.619.814.81 1.288.191.462.29.956.292 1.455a4.14 4.14 0 0 1-.518 2.023 3.629 3.629 0 0 1-1.42 1.424l2.608 4.417h-3.092l-2.271-3.83h-1.788v3.83l-2.743-.012zm-5.341-4.55l-1.389-4.2-1.42 4.2h2.809zm-2.623-7.327h2.472l4.33 11.88h-2.81l-.92-2.661h-3.698l-.901 2.654h-2.81l4.337-11.873zm-7.645 5.92a4.622 4.622 0 0 0-.207-1.43 3.211 3.211 0 0 0-.61-1.112 2.658 2.658 0 0 0-.986-.72 3.318 3.318 0 0 0-1.32-.25h-1.687v7.065h1.687a3.18 3.18 0 0 0 1.339-.267c.378-.17.713-.425.977-.745.27-.332.475-.713.603-1.121.143-.46.212-.94.204-1.42zm-7.54 5.97V19.742h4.43c.88-.018 1.756.14 2.573.468a5.18 5.18 0 0 1 2.966 3.142 6.95 6.95 0 0 1 .377 2.3 6.833 6.833 0 0 1-.418 2.45 5.269 5.269 0 0 1-1.194 1.886 5.34 5.34 0 0 1-1.885 1.203 6.645 6.645 0 0 1-2.432.427l-4.417.016zm-9.96-6.816v6.793h-2.74v-11.87h2.14l5.53 6.963v-6.963h2.74v11.88h-2.2l-5.47-6.803zm-8.09 2.244l-1.388-4.2-1.42 4.2h2.808zm-2.623-7.327h2.472l4.33 11.88h-2.809l-.92-2.662h-3.692l-.902 2.661h-2.793l4.314-11.879zm-4.562 2.413h-3.61v9.47h-2.74v-9.47h-3.629v-2.407h9.979v2.407zm-12.2 1.071a1.665 1.665 0 0 0-.352-.251 7.276 7.276 0 0 0-1.737-.735 3.93 3.93 0 0 0-1.068-.151c-.98 0-1.47.329-1.47.986a.785.785 0 0 0 .16.503c.128.151.288.273.468.358.248.122.508.22.776.293l1.087.314c.521.14 1.034.31 1.536.509.422.163.815.394 1.163.685.313.266.563.599.732.974.182.445.27.923.257 1.404a3.525 3.525 0 0 1-.377 1.7c-.231.45-.567.84-.98 1.134a4.2 4.2 0 0 1-1.42.628 7.07 7.07 0 0 1-1.656.192 9.664 9.664 0 0 1-2.677-.393c-.428-.126-.848-.28-1.256-.459a7.057 7.057 0 0 1-1.128-.628l1.203-2.39c.132.12.277.226.433.313.291.18.596.337.912.468.387.167.784.306 1.19.418.441.123.897.185 1.355.186.97 0 1.454-.296 1.454-.886a.748.748 0 0 0-.217-.553 2.045 2.045 0 0 0-.6-.393 6.526 6.526 0 0 0-.91-.314l-1.144-.336a9.887 9.887 0 0 1-1.42-.544 3.77 3.77 0 0 1-.997-.678 2.463 2.463 0 0 1-.584-.886 3.268 3.268 0 0 1-.192-1.172 3.732 3.732 0 0 1 .352-1.656c.223-.468.545-.882.943-1.213a4.144 4.144 0 0 1 1.395-.744 5.54 5.54 0 0 1 1.68-.252c.41 0 .818.039 1.22.116.39.08.776.185 1.153.315.351.116.695.255 1.027.417.319.158.61.314.877.469L94.06 23.22zM145.184 6.04c0 .45.067.898.201 1.329.126.415.328.804.594 1.146.263.337.596.611.977.805.414.211.873.319 1.338.314.476.012.947-.096 1.37-.314.38-.205.71-.49.968-.836a3.62 3.62 0 0 0 .578-1.153 4.571 4.571 0 0 0-.01-2.642 3.371 3.371 0 0 0-.6-1.138 2.988 2.988 0 0 0-.977-.785 2.894 2.894 0 0 0-1.329-.305 2.828 2.828 0 0 0-1.363.314c-.377.2-.708.476-.97.81a3.43 3.43 0 0 0-.585 1.129c-.129.43-.194.877-.192 1.326zm3.092 6.022a5.514 5.514 0 0 1-2.407-.518 5.932 5.932 0 0 1-1.854-1.363 6.211 6.211 0 0 1-1.194-1.933 6.092 6.092 0 0 1-.427-2.243 5.935 5.935 0 0 1 .443-2.259A5.985 5.985 0 0 1 145.954.51a5.655 5.655 0 0 1 2.372-.493 5.514 5.514 0 0 1 2.406.518c.703.33 1.333.797 1.854 1.373a6.186 6.186 0 0 1 1.188 1.942 6.11 6.11 0 0 1 .418 2.199 5.935 5.935 0 0 1-.443 2.259 6.007 6.007 0 0 1-3.098 3.255 5.59 5.59 0 0 1-2.375.5zM139 10.805a4.461 4.461 0 0 1-3.126 1.256 5.548 5.548 0 0 1-4.019-1.693 5.878 5.878 0 0 1-1.228-1.932 6.639 6.639 0 0 1-.453-2.485 5.97 5.97 0 0 1 .453-2.31 6.045 6.045 0 0 1 8.357-2.937 4.509 4.509 0 0 1 1.854 1.885l-2.04 1.54a2.919 2.919 0 0 0-1.162-1.257 3.211 3.211 0 0 0-1.646-.443 2.777 2.777 0 0 0-1.257.276c-.372.184-.7.446-.961.77a3.6 3.6 0 0 0-.628 1.147 4.42 4.42 0 0 0-.217 1.404c-.006.484.073.966.232 1.423.152.421.383.808.682 1.14a2.944 2.944 0 0 0 2.272 1.012c1.07 0 2.033-.496 2.89-1.489v-.364h-2.306V5.756h4.58v6.205h-2.27L139 10.805zM122.387 5.74h2.513a1.03 1.03 0 0 0 .836-.459c.248-.348.37-.77.346-1.197a1.659 1.659 0 0 0-.409-1.156 1.175 1.175 0 0 0-.87-.433h-2.422l.006 3.245zm-2.74 6.224V.084h5.341a3.437 3.437 0 0 1 1.546.353c.464.227.88.539 1.229.92.344.378.619.814.81 1.288.191.462.29.956.292 1.455a4.175 4.175 0 0 1-.518 2.023 3.632 3.632 0 0 1-1.417 1.417l2.608 4.418h-3.092l-2.271-3.83h-1.788v3.833l-2.74.003zm-1.671-2.41v2.41h-8.326V.084h8.169v2.407h-5.442v2.31h4.678v2.224h-4.678V9.54l5.599.015zM99.693 5.156v6.805h-2.74V.085h2.14l5.53 6.975V.085h2.74V11.96h-2.2l-5.47-6.805zm-4.398 4.398v2.41H86.94V.084h8.19v2.407h-5.45v2.31h4.678v2.224H89.68V9.54l5.615.015z"/></g></svg>