<svg width="21" height="12" viewBox="0 0 21 12" fill="none" xmlns="http://www.w3.org/2000/svg">
<path d="M20.8886 10.8373C20.8632 10.7824 20.8395 10.7369 20.8175 10.7004C20.4531 10.0432 19.7569 9.23652 18.7291 8.28012L18.7074 8.25822L18.6965 8.24748L18.6855 8.23647H18.6745C18.2081 7.79113 17.9127 7.49169 17.789 7.33838C17.5627 7.04634 17.5119 6.75074 17.6356 6.45122C17.723 6.22492 18.0513 5.74701 18.6197 5.01684C18.9187 4.62987 19.1555 4.31973 19.3303 4.08607C20.5915 2.40687 21.1382 1.33383 20.9705 0.86655L20.9053 0.757352C20.8616 0.691611 20.7486 0.63147 20.5666 0.576621C20.3841 0.521888 20.1509 0.512837 19.8666 0.549313L16.7177 0.571098C16.6667 0.552994 16.5939 0.554682 16.499 0.576621C16.4042 0.598561 16.3568 0.609569 16.3568 0.609569L16.302 0.636993L16.2585 0.66994C16.222 0.691726 16.1819 0.730043 16.1382 0.784815C16.0946 0.839395 16.0582 0.903448 16.0291 0.976438C15.6863 1.8598 15.2965 2.68111 14.859 3.44032C14.5893 3.89303 14.3416 4.28536 14.1154 4.61756C13.8895 4.94964 13.7 5.19431 13.547 5.35115C13.3938 5.50813 13.2556 5.6339 13.1314 5.72891C13.0075 5.82395 12.9128 5.86411 12.8473 5.84942C12.7816 5.83473 12.7198 5.82016 12.6612 5.80558C12.5592 5.73984 12.4772 5.65043 12.4154 5.53728C12.3532 5.42414 12.3114 5.28172 12.2896 5.11016C12.2678 4.93848 12.2549 4.79081 12.2513 4.66666C12.2478 4.54265 12.2494 4.36725 12.2568 4.14096C12.2644 3.91454 12.2678 3.76135 12.2678 3.68104C12.2678 3.40357 12.2732 3.10244 12.284 2.77757C12.2951 2.4527 12.304 2.1953 12.3115 2.00567C12.3189 1.81585 12.3223 1.61502 12.3223 1.4033C12.3223 1.19157 12.3095 1.02553 12.284 0.905021C12.2589 0.784661 12.2204 0.667831 12.1695 0.554567C12.1184 0.441418 12.0436 0.353891 11.9454 0.291756C11.847 0.229696 11.7247 0.180448 11.5791 0.143857C11.1928 0.0562913 10.7008 0.00892239 10.1029 0.00155814C8.7472 -0.0130169 7.87608 0.0746635 7.48975 0.264485C7.33668 0.344686 7.19817 0.454267 7.07432 0.592884C6.94308 0.753555 6.92477 0.841236 7.01952 0.855658C7.45693 0.921284 7.7666 1.07827 7.94885 1.32647L8.01452 1.45799C8.06561 1.55288 8.11662 1.72088 8.16767 1.96175C8.21864 2.20262 8.25154 2.46908 8.26601 2.76096C8.3024 3.29399 8.3024 3.75027 8.26601 4.12983C8.22952 4.50955 8.19505 4.80516 8.16216 5.01688C8.12926 5.2286 8.08009 5.40016 8.01452 5.53153C7.94885 5.66294 7.90515 5.74325 7.88325 5.7724C7.86138 5.80155 7.84315 5.81993 7.82867 5.82714C7.73393 5.8635 7.63539 5.88202 7.53341 5.88202C7.43127 5.88202 7.30743 5.83086 7.16167 5.7286C7.01595 5.62635 6.86472 5.48589 6.70798 5.307C6.55123 5.12807 6.37446 4.87803 6.17758 4.55684C5.98085 4.23565 5.77673 3.85605 5.56534 3.41803L5.39044 3.10037C5.2811 2.89601 5.13175 2.59845 4.94222 2.20796C4.75258 1.8173 4.58496 1.43943 4.43924 1.0744C4.38099 0.921091 4.29349 0.804376 4.17688 0.72406L4.12215 0.691112C4.08577 0.661962 4.02737 0.631009 3.94725 0.598024C3.86702 0.565076 3.78331 0.541449 3.69576 0.526912L0.699899 0.548699C0.39376 0.548699 0.186042 0.61816 0.0766687 0.756892L0.0328963 0.822518C0.0110293 0.859071 0 0.917448 0 0.997803C0 1.07812 0.0218671 1.17669 0.0656395 1.29341C0.502981 2.32287 0.978579 3.3157 1.49244 4.27205C2.00629 5.22841 2.45282 5.99878 2.83176 6.58247C3.21078 7.16659 3.59711 7.71787 3.99076 8.23605C4.3844 8.75443 4.64497 9.08662 4.77246 9.23256C4.9001 9.37878 5.00036 9.48809 5.07323 9.56108L5.34663 9.82385C5.52157 9.9991 5.77846 10.209 6.11741 10.4535C6.45645 10.6982 6.83179 10.939 7.24362 11.1765C7.65554 11.4136 8.13474 11.607 8.68149 11.7567C9.22816 11.9064 9.76025 11.9665 10.2778 11.9375H11.5352C11.7902 11.9155 11.9835 11.8352 12.1148 11.6966L12.1583 11.6417C12.1875 11.5981 12.2149 11.5304 12.2402 11.4393C12.2658 11.3481 12.2785 11.2475 12.2785 11.1382C12.271 10.8243 12.2949 10.5414 12.3494 10.2896C12.4039 10.0378 12.466 9.84802 12.5355 9.72018C12.6049 9.59245 12.6833 9.48467 12.7705 9.3973C12.8579 9.30974 12.9201 9.25669 12.9567 9.23843C12.993 9.22006 13.022 9.2076 13.0438 9.20012C13.2188 9.14174 13.4246 9.19827 13.6618 9.36999C13.8987 9.54156 14.1209 9.75339 14.3288 10.0052C14.5366 10.2572 14.7862 10.5399 15.0777 10.8537C15.3694 11.1677 15.6245 11.4011 15.843 11.5546L16.0616 11.686C16.2076 11.7737 16.3972 11.854 16.6305 11.927C16.8633 12 17.0674 12.0182 17.2426 11.9818L20.0415 11.938C20.3184 11.938 20.5338 11.8921 20.6866 11.801C20.8397 11.7098 20.9306 11.6093 20.96 11.4999C20.9892 11.3904 20.9908 11.2662 20.9655 11.1274C20.9396 10.9889 20.9141 10.8921 20.8886 10.8373Z" fill="#4C75A3"/>
</svg>
