<svg width="32" height="32" viewBox="0 0 32 32" fill="none" xmlns="http://www.w3.org/2000/svg">
<path d="M10.3357 7.252L24.3463 15.4253C24.4468 15.4841 24.53 15.5681 24.5879 15.6691C24.6458 15.77 24.6762 15.8843 24.6762 16.0007C24.6762 16.117 24.6458 16.2313 24.5879 16.3323C24.53 16.4332 24.4468 16.5172 24.3463 16.576L10.3357 24.7493C10.2342 24.8086 10.1188 24.8399 10.0013 24.8402C9.88375 24.8405 9.76823 24.8097 9.66644 24.7509C9.56464 24.6922 9.48019 24.6076 9.42164 24.5057C9.36308 24.4038 9.33251 24.2882 9.33301 24.1707V7.828C9.33298 7.71069 9.3639 7.59546 9.42264 7.49393C9.48139 7.39239 9.56588 7.30816 9.6676 7.24973C9.76931 7.1913 9.88464 7.16074 10.0019 7.16114C10.1192 7.16153 10.2344 7.19288 10.3357 7.252Z" fill="white"/>
</svg>
