<svg width="155" height="28" viewBox="0 0 155 28" fill="none" xmlns="http://www.w3.org/2000/svg">
<path fill-rule="evenodd" clip-rule="evenodd" d="M0 13.9373V20.9066C0.00553938 22.753 0.741493 24.5223 2.04714 25.8279C3.35278 27.1336 5.12202 27.8695 6.96846 27.8751H29.0359C29.9591 27.8723 30.8437 27.5043 31.4965 26.8515C32.1493 26.1987 32.5173 25.3141 32.5201 24.3908C32.5173 23.4676 32.1493 22.583 31.4965 21.9302C30.8437 21.2773 29.9591 20.9094 29.0359 20.9066H6.96846C5.12187 20.9011 3.35249 20.165 2.04683 18.8592C0.741161 17.5533 0.00530866 15.7839 0 13.9373H0Z" fill="url(#paint0_linear)"/>
<path d="M20.9097 10.4543H13.9413C13.0172 10.4543 12.131 10.8214 11.4775 11.4749C10.8241 12.1283 10.457 13.0145 10.457 13.9386C10.457 14.8627 10.8241 15.7489 11.4775 16.4023C12.131 17.0557 13.0172 17.4228 13.9413 17.4228H20.9097C21.8338 17.4228 22.72 17.0557 23.3735 16.4023C24.0269 15.7489 24.394 14.8627 24.394 13.9386C24.394 13.0145 24.0269 12.1283 23.3735 11.4749C22.72 10.8214 21.8338 10.4543 20.9097 10.4543Z" fill="url(#paint1_linear)"/>
<path fill-rule="evenodd" clip-rule="evenodd" d="M29.0361 0.00012207H13.9372C12.0908 0.00566145 10.3215 0.741616 9.01589 2.04726C7.71024 3.3529 6.97429 5.12214 6.96875 6.96859H29.0361C29.9602 6.96859 30.8464 6.6015 31.4999 5.94808C32.1533 5.29466 32.5204 4.40843 32.5204 3.48435C32.5204 2.56028 32.1533 1.67405 31.4999 1.02063C30.8464 0.36721 29.9602 0.00012207 29.0361 0.00012207Z" fill="url(#paint2_linear)"/>
<path fill-rule="evenodd" clip-rule="evenodd" d="M29.0361 0.00012207H13.9372C12.0908 0.00566145 10.3215 0.741616 9.01589 2.04726C7.71024 3.3529 6.97429 5.12214 6.96875 6.96859H29.0361C29.9602 6.96859 30.8464 6.6015 31.4999 5.94808C32.1533 5.29466 32.5204 4.40843 32.5204 3.48435C32.5204 2.56028 32.1533 1.67405 31.4999 1.02063C30.8464 0.36721 29.9602 0.00012207 29.0361 0.00012207Z" fill="url(#paint3_linear)"/>
<path fill-rule="evenodd" clip-rule="evenodd" d="M6.96847 20.9065V6.96956C6.974 5.12312 7.70996 3.35388 9.0156 2.04823C10.3212 0.742592 12.0905 0.00663802 13.9369 0.00109863H6.96847C5.12202 0.00663802 3.35278 0.742592 2.04714 2.04823C0.741494 3.35388 0.00553938 5.12312 0 6.96956L0 13.938C0.00553938 15.7845 0.741494 17.5537 2.04714 18.8594C3.35278 20.165 5.12202 20.901 6.96847 20.9065Z" fill="url(#paint4_linear)"/>
<path fill-rule="evenodd" clip-rule="evenodd" d="M6.96847 20.9065V6.96956C6.974 5.12312 7.70996 3.35388 9.0156 2.04823C10.3212 0.742592 12.0905 0.00663802 13.9369 0.00109863H6.96847C5.12202 0.00663802 3.35278 0.742592 2.04714 2.04823C0.741494 3.35388 0.00553938 5.12312 0 6.96956L0 13.938C0.00553938 15.7845 0.741494 17.5537 2.04714 18.8594C3.35278 20.165 5.12202 20.901 6.96847 20.9065Z" fill="url(#paint5_linear)"/>
<path fill-rule="evenodd" clip-rule="evenodd" d="M61.5516 10.4526H42.9685C41.122 10.4471 39.3528 9.7111 38.0471 8.40546C36.7415 7.09982 36.0055 5.33058 36 3.48413V10.4526C36.0055 12.299 36.7415 14.0683 38.0471 15.3739C39.3528 16.6796 41.122 17.4155 42.9685 17.4211H61.5516C63.3982 17.4266 65.1676 18.1627 66.4733 19.4685C67.7789 20.7743 68.5148 22.5438 68.5201 24.3904V17.4211C68.5145 15.5746 67.7786 13.8054 66.4729 12.4997C65.1673 11.1941 63.3981 10.4581 61.5516 10.4526Z" fill="url(#paint6_linear)"/>
<path fill-rule="evenodd" clip-rule="evenodd" d="M65.0359 0H39.4842C38.561 0.00276969 37.6764 0.370747 37.0236 1.02357C36.3707 1.67639 36.0028 2.56101 36 3.48423C36.0055 5.33068 36.7415 7.09992 38.0471 8.40556C39.3528 9.71121 41.122 10.4472 42.9685 10.4527V6.96847H65.0359C65.9591 6.9657 66.8437 6.59772 67.4965 5.9449C68.1493 5.29208 68.5173 4.40746 68.5201 3.48423C68.5173 2.56101 68.1493 1.67639 67.4965 1.02357C66.8437 0.370747 65.9591 0.00276969 65.0359 0V0Z" fill="url(#paint7_linear)"/>
<path fill-rule="evenodd" clip-rule="evenodd" d="M65.0359 0H39.4842C38.561 0.00276969 37.6764 0.370747 37.0236 1.02357C36.3707 1.67639 36.0028 2.56101 36 3.48423C36.0055 5.33068 36.7415 7.09992 38.0471 8.40556C39.3528 9.71121 41.122 10.4472 42.9685 10.4527V6.96847H65.0359C65.9591 6.9657 66.8437 6.59772 67.4965 5.9449C68.1493 5.29208 68.5173 4.40746 68.5201 3.48423C68.5173 2.56101 68.1493 1.67639 67.4965 1.02357C66.8437 0.370747 65.9591 0.00276969 65.0359 0V0Z" fill="url(#paint8_linear)"/>
<path fill-rule="evenodd" clip-rule="evenodd" d="M61.5516 17.4214V20.9056H39.4842C38.561 20.9084 37.6764 21.2764 37.0236 21.9292C36.3707 22.582 36.0028 23.4666 36 24.3899C36.0028 25.3131 36.3707 26.1977 37.0236 26.8505C37.6764 27.5033 38.561 27.8713 39.4842 27.8741H65.0359C65.9591 27.8713 66.8437 27.5033 67.4965 26.8505C68.1493 26.1977 68.5173 25.3131 68.5201 24.3899C68.5145 22.5434 67.7786 20.7742 66.4729 19.4685C65.1673 18.1629 63.3981 17.4269 61.5516 17.4214Z" fill="url(#paint9_linear)"/>
<path fill-rule="evenodd" clip-rule="evenodd" d="M61.5516 17.4214V20.9056H39.4842C38.561 20.9084 37.6764 21.2764 37.0236 21.9292C36.3707 22.582 36.0028 23.4666 36 24.3899C36.0028 25.3131 36.3707 26.1977 37.0236 26.8505C37.6764 27.5033 38.561 27.8713 39.4842 27.8741H65.0359C65.9591 27.8713 66.8437 27.5033 67.4965 26.8505C68.1493 26.1977 68.5173 25.3131 68.5201 24.3899C68.5145 22.5434 67.7786 20.7742 66.4729 19.4685C65.1673 18.1629 63.3981 17.4269 61.5516 17.4214Z" fill="url(#paint10_linear)"/>
<path fill-rule="evenodd" clip-rule="evenodd" d="M154.216 19.5335H151.032V27.8836H148.616V19.5335H145.412V17.409H154.209L154.216 19.5335ZM138.785 22.3948H140.992C141.138 22.3918 141.281 22.3534 141.41 22.2829C141.538 22.2123 141.647 22.1117 141.728 21.9896C141.945 21.6851 142.054 21.3176 142.036 20.944C142.036 20.5118 141.921 20.167 141.688 19.9115C141.595 19.7965 141.479 19.7027 141.347 19.6366C141.214 19.5705 141.069 19.5336 140.922 19.5283H138.785V22.3948ZM136.368 27.8827V17.409H141.084C141.557 17.4046 142.024 17.5107 142.448 17.7188C142.857 17.92 143.225 18.1948 143.532 18.5325C143.835 18.865 144.077 19.25 144.246 19.6674C144.415 20.0752 144.502 20.5109 144.504 20.951C144.506 21.5752 144.349 22.1897 144.047 22.736C143.756 23.2639 143.322 23.6989 142.794 23.9908L145.094 27.8862H142.366L140.362 24.5061H138.785V27.8854L136.368 27.8827ZM131.651 23.87L130.43 20.1688L129.177 23.8709L131.651 23.87ZM129.338 17.4073H131.519L135.337 27.8827H132.86L132.048 25.5369H128.795L128 27.8819H125.524L129.338 17.4073ZM122.601 22.6345C122.606 22.2059 122.544 21.7792 122.416 21.3701C122.303 21.0107 122.121 20.6773 121.878 20.3893C121.641 20.1133 121.343 19.8961 121.008 19.7549C120.64 19.6028 120.245 19.5275 119.847 19.5335H118.357V25.7591H119.847C120.252 25.768 120.654 25.6889 121.025 25.5272C121.359 25.3776 121.654 25.1527 121.887 24.871C122.125 24.5779 122.305 24.2428 122.418 23.8823C122.545 23.478 122.608 23.0563 122.604 22.6319L122.601 22.6345ZM115.94 27.8862V17.409H119.846C120.622 17.3926 121.394 17.5331 122.115 17.822C122.727 18.0685 123.278 18.4447 123.731 18.9247C124.184 19.4048 124.528 19.9772 124.739 20.6028C124.963 21.2555 125.076 21.9415 125.07 22.6319C125.081 23.3686 124.957 24.1019 124.703 24.7931C124.473 25.4126 124.114 25.9761 123.649 26.446C123.18 26.9118 122.617 27.274 121.999 27.5091C121.314 27.7673 120.587 27.8949 119.854 27.8854L115.94 27.8862ZM107.171 21.8969V27.8862H104.762V17.409H106.648L111.526 23.5646V17.409H113.937V27.8836H111.992L107.171 21.8969ZM100.038 23.8709L98.8143 20.1688L97.5613 23.8709H100.038ZM97.7241 17.409H99.9072L103.724 27.8836H101.249L100.436 25.5377H97.1833L96.388 27.8836H93.91L97.7241 17.409ZM93.7008 19.5335H90.5194V27.8836H88.1026V19.5335H84.9019V17.409H93.6991L93.7008 19.5335ZM82.9419 20.4776C82.849 20.3905 82.7452 20.3158 82.633 20.2554C82.1524 19.9732 81.6371 19.755 81.1 19.6062C80.7932 19.5189 80.4758 19.4744 80.1568 19.474C79.2923 19.474 78.86 19.7637 78.86 20.3438C78.8548 20.503 78.9038 20.6588 79.0001 20.7865C79.1138 20.9204 79.2538 21.028 79.413 21.1033C79.6318 21.2109 79.8619 21.2975 80.0982 21.3614C80.3729 21.4384 80.6923 21.5276 81.0563 21.6274C81.5164 21.751 81.9689 21.9012 82.4117 22.0771C82.7837 22.2212 83.1296 22.4255 83.4354 22.6818C83.7147 22.9218 83.9364 23.2218 84.0838 23.5594C84.2465 23.9523 84.3261 24.374 84.3165 24.7992C84.3323 25.3179 84.218 25.8323 83.984 26.2955C83.774 26.691 83.4739 27.0305 83.1073 27.2842C82.7271 27.5424 82.3022 27.7276 81.8543 27.8302C81.3762 27.9441 80.8863 28.0011 80.3948 28C79.5964 27.9955 78.8026 27.8789 78.0367 27.6535C77.6581 27.542 77.2869 27.4067 76.9254 27.2484C76.5776 27.0971 76.2443 26.9143 75.9297 26.7024L76.9911 24.5936C77.1074 24.7013 77.2361 24.7949 77.3743 24.8736C77.6307 25.032 77.8993 25.1711 78.1776 25.2866C78.5249 25.4345 78.8819 25.5579 79.2468 25.6559C79.6355 25.7636 80.0369 25.8183 80.4403 25.8186C81.2925 25.8186 81.7178 25.5579 81.7178 25.0373C81.7206 24.9474 81.705 24.8579 81.6721 24.7743C81.6391 24.6906 81.5895 24.6146 81.5262 24.5508C81.3713 24.4043 81.1918 24.2864 80.9959 24.2025C80.7354 24.0865 80.4666 23.99 80.1918 23.9138C79.882 23.8263 79.546 23.7274 79.1829 23.6189C78.7545 23.4916 78.3365 23.3316 77.9326 23.1403C77.6101 22.9898 77.3141 22.7883 77.0558 22.5435C76.8289 22.3237 76.6528 22.057 76.5396 21.7621C76.4208 21.4312 76.3635 21.0812 76.3707 20.7296C76.3604 20.2253 76.4661 19.7254 76.6796 19.2684C76.8783 18.8548 77.165 18.4895 77.5196 18.1983C77.8824 17.9015 78.2988 17.6772 78.7463 17.5377C79.2255 17.3882 79.7248 17.3136 80.2268 17.3163C80.5882 17.3163 80.9478 17.3504 81.303 17.4195C81.6469 17.486 81.9864 17.5744 82.3198 17.6855C82.6295 17.7879 82.9323 17.9113 83.2254 18.0548C83.5054 18.1922 83.7635 18.3304 83.9989 18.4678L82.9419 20.4776ZM128.027 5.32622C128.025 5.72435 128.085 6.11985 128.203 6.49959C128.314 6.86534 128.492 7.20834 128.726 7.51021C128.958 7.80596 129.252 8.04834 129.588 8.21896C129.955 8.39921 130.36 8.48846 130.768 8.47883C131.189 8.48846 131.605 8.39221 131.978 8.19883C132.312 8.02034 132.604 7.77009 132.832 7.46821C133.062 7.16196 133.234 6.81809 133.342 6.45059C133.569 5.69091 133.565 4.88106 133.333 4.12311C133.223 3.7575 133.042 3.4167 132.803 3.11949C132.568 2.82883 132.274 2.59141 131.941 2.42299C131.576 2.24511 131.174 2.15662 130.768 2.16487C130.351 2.15487 129.938 2.24932 129.567 2.43961C129.234 2.61461 128.944 2.85961 128.712 3.15449C128.478 3.45572 128.302 3.79864 128.196 4.16511C128.083 4.54179 128.026 4.933 128.027 5.32622ZM130.753 10.6374C130.02 10.6469 129.294 10.4904 128.631 10.1798C128.012 9.89025 127.456 9.48209 126.994 8.97846C126.541 8.48004 126.184 7.90217 125.941 7.27396C125.692 6.6455 125.565 5.97578 125.565 5.29997C125.563 4.61748 125.696 3.94023 125.955 3.30761C126.465 2.03527 127.451 1.0116 128.703 0.453374C129.361 0.159167 130.074 0.0105252 130.795 0.0176262C131.527 0.00838784 132.253 0.164824 132.916 0.475249C133.537 0.766378 134.093 1.1777 134.553 1.68537C135.004 2.18659 135.359 2.7672 135.598 3.39773C135.842 4.01723 135.968 4.67698 135.971 5.34285C135.972 6.02535 135.84 6.70259 135.581 7.33434C135.073 8.60577 134.093 9.63144 132.846 10.1964C132.189 10.4949 131.474 10.6455 130.753 10.6374ZM122.572 9.51745C121.833 10.2322 120.844 10.6292 119.816 10.6234C119.155 10.6275 118.5 10.4976 117.891 10.2414C117.282 9.98533 116.731 9.60837 116.271 9.13333C115.803 8.64296 115.436 8.06529 115.191 7.43321C114.919 6.73538 114.784 5.99193 114.792 5.2431C114.788 4.54463 114.924 3.85246 115.191 3.20698C115.582 2.25272 116.25 1.43741 117.109 0.865929C117.968 0.294446 118.978 -0.00708141 120.009 0.000126264C120.981 0.000126264 121.834 0.204 122.564 0.612623C123.265 0.994168 123.835 1.5777 124.2 2.28736L122.402 3.64448C122.177 3.1847 121.82 2.80238 121.377 2.54636C120.937 2.28714 120.436 2.15169 119.925 2.15437C119.552 2.14965 119.183 2.2303 118.846 2.39014C118.509 2.54999 118.213 2.78479 117.98 3.07661C117.739 3.37764 117.554 3.72009 117.435 4.08723C117.305 4.48717 117.24 4.90559 117.243 5.32622C117.24 5.75322 117.31 6.1776 117.451 6.58097C117.578 6.94584 117.773 7.28359 118.026 7.57584C118.274 7.86229 118.582 8.09074 118.929 8.2451C119.275 8.39946 119.651 8.47596 120.03 8.46921C120.974 8.46921 121.825 8.03171 122.585 7.15584V6.83034H120.552V5.07598H124.59V10.5482H122.585L122.572 9.51745ZM107.925 5.06023H110.132C110.278 5.0573 110.421 5.01891 110.549 4.94834C110.678 4.87778 110.787 4.77715 110.867 4.6551C111.084 4.35148 111.194 3.98311 111.176 3.61036C111.176 3.17724 111.061 2.83336 110.828 2.57786C110.735 2.46252 110.619 2.36856 110.487 2.30241C110.354 2.23626 110.209 2.19949 110.062 2.19461H107.925V5.06023ZM105.507 10.5482V0.0745009H110.221C110.694 0.069326 111.162 0.175109 111.588 0.383374C111.997 0.584623 112.365 0.859372 112.672 1.19712C112.975 1.52962 113.217 1.91462 113.386 2.33199C113.555 2.73974 113.642 3.17549 113.644 3.61561C113.648 4.23998 113.491 4.85492 113.188 5.4006C112.897 5.9285 112.462 6.36345 111.935 6.65534L114.234 10.5508H111.506L109.502 7.17071H107.925V10.5482H105.507ZM104.034 8.42371V10.5482H96.6793V0.0745009H103.902V2.19899H99.0961V4.23511H103.223V6.19685H99.0961V8.42371H104.034ZM87.911 4.55885V10.5482H85.4943V0.0745009H87.3799L92.258 6.23009V0.0745009H94.6747V10.5482H92.7305L87.911 4.55885ZM84.0199 8.42371V10.5482H76.6656V0.0745009H83.8878V2.19899H79.0823V4.23511H83.2097V6.19685H79.0823V8.42371H84.0199Z" fill="#4A4A4A"/>
<defs>
<linearGradient id="paint0_linear" x1="3.41598" y1="10.5239" x2="25.6199" y2="32.7295" gradientUnits="userSpaceOnUse">
<stop stop-color="#FF001F"/>
<stop offset="1" stop-color="#40B4FF"/>
</linearGradient>
<linearGradient id="paint1_linear" x1="1596.64" y1="1098.94" x2="2000.18" y2="291.974" gradientUnits="userSpaceOnUse">
<stop stop-color="#FF001F"/>
<stop offset="1" stop-color="#40B4FF"/>
</linearGradient>
<linearGradient id="paint2_linear" x1="2674.79" y1="727.659" x2="3138.86" y2="-974.062" gradientUnits="userSpaceOnUse">
<stop stop-color="#FF001F"/>
<stop offset="1" stop-color="#40B4FF"/>
</linearGradient>
<linearGradient id="paint3_linear" x1="29.4089" y1="9.80357" x2="10.5484" y2="-1.08575" gradientUnits="userSpaceOnUse">
<stop stop-opacity="0"/>
<stop offset="0.85" stop-opacity="0.32"/>
<stop offset="1" stop-opacity="0.6"/>
</linearGradient>
<linearGradient id="paint4_linear" x1="836.229" y1="3763.24" x2="836.229" y2="0.210141" gradientUnits="userSpaceOnUse">
<stop stop-color="#FF001F"/>
<stop offset="1" stop-color="#40B4FF"/>
</linearGradient>
<linearGradient id="paint5_linear" x1="6.96846" y1="0.00197363" x2="6.96846" y2="20.9082" gradientUnits="userSpaceOnUse">
<stop stop-opacity="0"/>
<stop offset="0.88" stop-opacity="0.43"/>
<stop offset="1" stop-opacity="0.6"/>
</linearGradient>
<linearGradient id="paint6_linear" x1="60.086" y1="6.11349" x2="44.435" y2="21.7637" gradientUnits="userSpaceOnUse">
<stop stop-color="#C43950"/>
<stop offset="1" stop-color="#40B4FF"/>
</linearGradient>
<linearGradient id="paint7_linear" x1="17147.7" y1="-482.609" x2="16182" y2="2521.8" gradientUnits="userSpaceOnUse">
<stop stop-color="#FF001F"/>
<stop offset="1" stop-color="#40B4FF"/>
</linearGradient>
<linearGradient id="paint8_linear" x1="61.1089" y1="-5.36197" x2="42.6928" y2="13.0532" gradientUnits="userSpaceOnUse">
<stop stop-opacity="0"/>
<stop offset="0.86" stop-opacity="0.38"/>
<stop offset="1" stop-opacity="0.6"/>
</linearGradient>
<linearGradient id="paint9_linear" x1="12192.3" y1="3009.03" x2="13158" y2="4.62299" gradientUnits="userSpaceOnUse">
<stop stop-color="#FF001F"/>
<stop offset="1" stop-color="#40B4FF"/>
</linearGradient>
<linearGradient id="paint10_linear" x1="43.4112" y1="33.2404" x2="61.8264" y2="14.8244" gradientUnits="userSpaceOnUse">
<stop stop-opacity="0"/>
<stop offset="0.92" stop-opacity="0.5"/>
<stop offset="1" stop-opacity="0.6"/>
</linearGradient>
</defs>
</svg>
